<svg xmlns="http://www.w3.org/2000/svg" version="1.1" xmlns:xlink="http://www.w3.org/1999/xlink" xmlns:svgjs="http://svgjs.dev/svgjs" width="1000" height="914" viewBox="0 0 1000 914"><g transform="matrix(1,0,0,1,0.6008856850012876,0.370040485829918)"><svg viewBox="0 0 270 247" data-background-color="#ffffff" preserveAspectRatio="xMidYMid meet" height="914" width="1000" xmlns="http://www.w3.org/2000/svg" xmlns:xlink="http://www.w3.org/1999/xlink"><g id="tight-bounds" transform="matrix(1,0,0,1,-0.16223913495034026,-0.09999999999999432)"><svg viewBox="0 0 270.3244782699007 247.2" height="247.2" width="270.3244782699007"><g><svg viewBox="0 0 395.52000000000004 361.6858696103012" height="247.2" width="270.3244782699007"><g transform="matrix(1,0,0,1,0,255.66155783004942)"><svg viewBox="0 0 395.52000000000004 106.02431178025176" height="106.02431178025176" width="395.52000000000004"><g id="textblocktransform"><svg viewBox="0 0 395.52000000000004 106.02431178025176" height="106.02431178025176" width="395.52000000000004" id="textblock"><g><rect width="84.39971402472727" height="5.1569524946295955" y="85.77584123923067" fill="#ba3b0a" data-fill-palette-color="tertiary"></rect><rect width="84.39971402472727" height="5.1569524946295955" y="85.77584123923067" x="311.12028597527274" fill="#ba3b0a" data-fill-palette-color="tertiary"></rect></g><g><svg viewBox="0 0 395.52000000000004 57.18444755244756" height="57.18444755244756" width="395.52000000000004"><g transform="matrix(1,0,0,1,0,0)"><svg width="395.52000000000004" viewBox="3.15 -40.85 285.97 41.35" height="57.18444755244756" data-palette-color="#ba3b0a"><path d="M8.8 0L3.15 0 3.15-40.5 8.8-40.5 8.8-21.4 18.1-40.5 23.35-40.5 15.35-22.65 24.65 0 19.15 0 11.4-19 8.8-14.3 8.8 0ZM33.55 0L27.9 0 27.9-40.5 36.05-40.5Q40.1-40.5 42.75-39.43 45.4-38.35 46.67-35.98 47.95-33.6 47.95-29.75L47.95-29.75Q47.95-27.4 47.45-25.48 46.95-23.55 45.85-22.23 44.75-20.9 42.95-20.3L42.95-20.3 48.7 0 43.25 0 37.95-19 33.55-19 33.55 0ZM33.55-36.45L33.55-23.05 35.7-23.05Q38.1-23.05 39.6-23.65 41.1-24.25 41.8-25.7 42.5-27.15 42.5-29.75L42.5-29.75Q42.5-33.3 41.2-34.88 39.9-36.45 36.05-36.45L36.05-36.45 33.55-36.45ZM59.7 0L54.15 0 54.15-40.5 59.7-40.5 59.7 0ZM75.79 0.45L75.79 0.45Q72.29 0.45 69.97-1.05 67.64-2.55 66.44-5.2 65.24-7.85 65.04-11.35L65.04-11.35 70.04-12.7Q70.19-10.55 70.72-8.55 71.24-6.55 72.44-5.28 73.64-4 75.79-4L75.79-4Q77.99-4 79.12-5.23 80.24-6.45 80.24-8.75L80.24-8.75Q80.24-11.5 78.99-13.18 77.74-14.85 75.84-16.55L75.84-16.55 69.04-22.55Q67.04-24.3 66.09-26.38 65.14-28.45 65.14-31.5L65.14-31.5Q65.14-35.95 67.69-38.4 70.24-40.85 74.64-40.85L74.64-40.85Q77.04-40.85 78.87-40.23 80.69-39.6 81.92-38.3 83.14-37 83.87-35.02 84.59-33.05 84.84-30.4L84.84-30.4 80.04-29.1Q79.89-31.1 79.44-32.77 78.99-34.45 77.87-35.48 76.74-36.5 74.64-36.5L74.64-36.5Q72.54-36.5 71.37-35.38 70.19-34.25 70.19-32.05L70.19-32.05Q70.19-30.2 70.82-29 71.44-27.8 72.84-26.55L72.84-26.55 79.69-20.55Q81.99-18.55 83.74-15.78 85.49-13 85.49-9.2L85.49-9.2Q85.49-6.2 84.24-4.03 82.99-1.85 80.82-0.7 78.64 0.45 75.79 0.45ZM99.44 0.45L99.44 0.45Q95.94 0.45 93.62-1.05 91.29-2.55 90.09-5.2 88.89-7.85 88.69-11.35L88.69-11.35 93.69-12.7Q93.84-10.55 94.37-8.55 94.89-6.55 96.09-5.28 97.29-4 99.44-4L99.44-4Q101.64-4 102.77-5.23 103.89-6.45 103.89-8.75L103.89-8.75Q103.89-11.5 102.64-13.18 101.39-14.85 99.49-16.55L99.49-16.55 92.69-22.55Q90.69-24.3 89.74-26.38 88.79-28.45 88.79-31.5L88.79-31.5Q88.79-35.95 91.34-38.4 93.89-40.85 98.29-40.85L98.29-40.85Q100.69-40.85 102.52-40.23 104.34-39.6 105.57-38.3 106.79-37 107.52-35.02 108.24-33.05 108.49-30.4L108.49-30.4 103.69-29.1Q103.54-31.1 103.09-32.77 102.64-34.45 101.52-35.48 100.39-36.5 98.29-36.5L98.29-36.5Q96.19-36.5 95.02-35.38 93.84-34.25 93.84-32.05L93.84-32.05Q93.84-30.2 94.47-29 95.09-27.8 96.49-26.55L96.49-26.55 103.34-20.55Q105.64-18.55 107.39-15.78 109.14-13 109.14-9.2L109.14-9.2Q109.14-6.2 107.89-4.03 106.64-1.85 104.47-0.7 102.29 0.45 99.44 0.45ZM134.24 0L124.99 0 124.99-40.5 133.79-40.5Q138.29-40.5 140.91-39.13 143.54-37.75 144.66-35 145.79-32.25 145.79-28.15L145.79-28.15 145.79-13.25Q145.79-8.95 144.66-6 143.54-3.05 141.01-1.53 138.49 0 134.24 0L134.24 0ZM130.64-36.3L130.64-4.05 133.84-4.05Q136.94-4.05 138.24-5.25 139.54-6.45 139.81-8.75 140.09-11.05 140.09-14.3L140.09-14.3 140.09-27.45Q140.09-30.6 139.69-32.55 139.29-34.5 137.94-35.4 136.59-36.3 133.69-36.3L133.69-36.3 130.64-36.3ZM156.98 0L151.33 0 151.33-40.5 159.48-40.5Q163.53-40.5 166.18-39.43 168.83-38.35 170.11-35.98 171.38-33.6 171.38-29.75L171.38-29.75Q171.38-27.4 170.88-25.48 170.38-23.55 169.28-22.23 168.18-20.9 166.38-20.3L166.38-20.3 172.13 0 166.68 0 161.38-19 156.98-19 156.98 0ZM156.98-36.45L156.98-23.05 159.13-23.05Q161.53-23.05 163.03-23.65 164.53-24.25 165.23-25.7 165.93-27.15 165.93-29.75L165.93-29.75Q165.93-33.3 164.63-34.88 163.33-36.45 159.48-36.45L159.48-36.45 156.98-36.45ZM183.13 0L177.58 0 177.58-40.5 183.13-40.5 183.13 0ZM205.68 0L189.68 0 189.68-40.5 195.33-40.5 195.33-4.05 205.68-4.05 205.68 0ZM225.53 0L209.53 0 209.53-40.5 215.18-40.5 215.18-4.05 225.53-4.05 225.53 0ZM235.22 0L229.67 0 229.67-40.5 235.22-40.5 235.22 0ZM246.57 0L241.77 0 241.77-40.5 245.62-40.5 257.12-13.6 257.12-40.5 261.82-40.5 261.82 0 258.22 0 246.57-27.65 246.57 0ZM277.82 0.5L277.82 0.5Q274.02 0.5 271.74-1.13 269.47-2.75 268.44-5.85 267.42-8.95 267.42-13.3L267.42-13.3 267.42-26.85Q267.42-31.3 268.34-34.43 269.27-37.55 271.64-39.2 274.02-40.85 278.27-40.85L278.27-40.85Q282.07-40.85 284.39-39.58 286.72-38.3 287.77-35.68 288.82-33.05 288.82-29.05L288.82-29.05 288.82-27.55 283.52-27.55 283.52-28.8Q283.52-31.45 283.17-33.13 282.82-34.8 281.74-35.63 280.67-36.45 278.37-36.45L278.37-36.45Q275.87-36.45 274.74-35.3 273.62-34.15 273.34-32.18 273.07-30.2 273.07-27.7L273.07-27.7 273.07-12.7Q273.07-9.8 273.49-7.85 273.92-5.9 275.12-4.95 276.32-4 278.52-4L278.52-4Q280.72-4 281.92-5.05 283.12-6.1 283.57-8.15 284.02-10.2 284.02-13.25L284.02-13.25 284.02-16.05 278.87-16.05 278.87-20.05 289.12-20.05 289.12 0 285.57 0 285.02-4.65Q284.22-2.4 282.52-0.95 280.82 0.5 277.82 0.5Z" opacity="1" transform="matrix(1,0,0,1,0,0)" fill="#ba3b0a" class="wordmark-text-0" data-fill-palette-color="primary" id="text-0"></path></svg></g></svg></g><g transform="matrix(1,0,0,1,84.39971402472727,70.68432319283917)"><svg viewBox="0 0 226.7205719505455 35.33998858741259" height="35.33998858741259" width="226.7205719505455"><g transform="matrix(1,0,0,1,8,0)"><svg width="210.7205719505455" viewBox="3.1 -37.5 223.57 37.5" height="35.33998858741259" data-palette-color="#e8772e"><path d="M7.75 0L3.1 0 3.1-35 18.1-35Q19.55-35 20.63-33.95 21.7-32.9 21.7-31.4L21.7-31.4 21.7-20.65Q21.7-19.15 20.63-18.1 19.55-17.05 18.1-17.05L18.1-17.05 7.75-17.05 7.75 0ZM7.75-30.35L7.75-21.7 15.25-21.7Q16-21.7 16.53-22.23 17.05-22.75 17.05-23.5L17.05-23.5 17.05-28.6Q17.05-29.3 16.53-29.83 16-30.35 15.25-30.35L15.25-30.35 7.75-30.35ZM31 0L26.3 0 26.3-25 36.75-25Q38.25-25 39.32-23.93 40.4-22.85 40.4-21.35L40.4-21.35 40.4-15.9 35.7-16.95 35.7-18.45Q35.7-19.2 35.17-19.75 34.65-20.3 33.9-20.3L33.9-20.3 31-20.3 31 0ZM47.6-32.8L42.9-31.7 42.9-36.4 47.6-37.5 47.6-32.8ZM47.7 0L43 0 43-23.9 47.7-25 47.7 0ZM59.59 0L54.89 0 50.19-25 54.89-25 57.24-12.5 59.59-25 64.29-25 59.59 0ZM78.89 0L68.44 0Q66.94 0 65.87-1.05 64.79-2.1 64.79-3.65L64.79-3.65 64.79-11.2Q64.79-12.7 65.87-13.78 66.94-14.85 68.44-14.85L68.44-14.85 72.34-14.85Q73.14-14.85 73.67-15.38 74.19-15.9 74.19-16.65L74.19-16.65 74.19-18.5Q74.19-19.25 73.67-19.78 73.14-20.3 72.34-20.3L72.34-20.3 66.94-20.3 67.99-25 75.24-25Q76.74-25 77.82-23.93 78.89-22.85 78.89-21.35L78.89-21.35 78.89 0ZM71.29-4.7L71.29-4.7 74.19-4.7 74.19-10.15 71.29-10.15Q70.54-10.15 70.02-9.63 69.49-9.1 69.49-8.35L69.49-8.35 69.49-6.5Q69.49-5.75 70.02-5.23 70.54-4.7 71.29-4.7ZM86.59 0L81.89 0 81.89-36.4 86.59-37.45 86.59-25 92.54-25 91.44-20.3 86.59-20.3 86.59 0ZM108.14 0L97.69 0Q96.19 0 95.11-1.07 94.04-2.15 94.04-3.65L94.04-3.65 94.04-21.4Q94.04-22.9 95.11-23.95 96.19-25 97.69-25L97.69-25 104.49-25Q106.04-25 107.09-23.95 108.14-22.9 108.14-21.4L108.14-21.4 108.14-13.8Q108.14-12.3 107.09-11.23 106.04-10.15 104.49-10.15L104.49-10.15 98.74-10.15 98.74-6.5Q98.74-5.75 99.26-5.23 99.79-4.7 100.59-4.7L100.59-4.7 107.09-4.7 108.14 0ZM98.74-18.5L98.74-14.85 101.64-14.85Q102.39-14.85 102.91-15.38 103.44-15.9 103.44-16.65L103.44-16.65 103.44-18.5Q103.44-19.25 102.91-19.78 102.39-20.3 101.64-20.3L101.64-20.3 100.59-20.3Q99.79-20.3 99.26-19.78 98.74-19.25 98.74-18.5L98.74-18.5ZM136.83 0L120.23 0 120.23-35 124.88-35 124.88-4.65 136.83-4.65 136.83 0ZM144.43-32.8L139.73-31.7 139.73-36.4 144.43-37.5 144.43-32.8ZM144.53 0L139.83 0 139.83-23.9 144.53-25 144.53 0ZM152.58 0L147.88 0 147.88-25 167.73-25Q169.23-25 170.28-23.93 171.33-22.85 171.33-21.35L171.33-21.35 171.33 0 166.68 0 166.68-18.5Q166.68-19.25 166.13-19.78 165.58-20.3 164.83-20.3L164.83-20.3 161.98-20.3 161.98 0 157.28 0 157.28-18.5Q157.28-19.25 156.73-19.78 156.18-20.3 155.43-20.3L155.43-20.3 152.58-20.3 152.58 0ZM179.22-32.8L174.52-31.7 174.52-36.4 179.22-37.5 179.22-32.8ZM179.32 0L174.62 0 174.62-23.9 179.32-25 179.32 0ZM188.02 0L183.32 0 183.32-36.4 188.02-37.45 188.02-25 193.97-25 192.87-20.3 188.02-20.3 188.02 0ZM209.57 0L199.12 0Q197.62 0 196.54-1.07 195.47-2.15 195.47-3.65L195.47-3.65 195.47-21.4Q195.47-22.9 196.54-23.95 197.62-25 199.12-25L199.12-25 205.92-25Q207.47-25 208.52-23.95 209.57-22.9 209.57-21.4L209.57-21.4 209.57-13.8Q209.57-12.3 208.52-11.23 207.47-10.15 205.92-10.15L205.92-10.15 200.17-10.15 200.17-6.5Q200.17-5.75 200.69-5.23 201.22-4.7 202.02-4.7L202.02-4.7 208.52-4.7 209.57 0ZM200.17-18.5L200.17-14.85 203.07-14.85Q203.82-14.85 204.34-15.38 204.87-15.9 204.87-16.65L204.87-16.65 204.87-18.5Q204.87-19.25 204.34-19.78 203.82-20.3 203.07-20.3L203.07-20.3 202.02-20.3Q201.22-20.3 200.69-19.78 200.17-19.25 200.17-18.5L200.17-18.5ZM226.67 0L216.22 0Q214.67 0 213.62-1.05 212.57-2.1 212.57-3.65L212.57-3.65 212.57-21.35Q212.57-22.9 213.62-23.95 214.67-25 216.22-25L216.22-25 221.97-25 221.97-36.4 226.67-37.5 226.67 0ZM219.07-4.7L219.07-4.7 221.97-4.7 221.97-20.3 219.07-20.3Q218.37-20.3 217.82-19.8 217.27-19.3 217.27-18.5L217.27-18.5 217.27-6.5Q217.27-5.8 217.82-5.25 218.37-4.7 219.07-4.7Z" opacity="1" transform="matrix(1,0,0,1,0,0)" fill="#e8772e" class="slogan-text-1" data-fill-palette-color="secondary" id="text-1"></path></svg></g></svg></g></svg></g></svg></g><g transform="matrix(1,0,0,1,83.42909672536692,0)"><svg viewBox="0 0 228.6618065492662 228.6618065492662" height="228.6618065492662" width="228.6618065492662"><g><svg></svg></g><g id="icon-0"><svg viewBox="0 0 228.6618065492662 228.6618065492662" height="228.6618065492662" width="228.6618065492662"><g><path d="M0 114.331c0-63.143 51.188-114.331 114.331-114.331 63.143 0 114.331 51.188 114.331 114.331 0 63.143-51.188 114.331-114.331 114.331-63.143 0-114.331-51.188-114.331-114.331zM114.331 223.505c60.295 0 109.174-48.879 109.174-109.174 0-60.295-48.879-109.174-109.174-109.174-60.295 0-109.174 48.879-109.174 109.174 0 60.295 48.879 109.174 109.174 109.174z" data-fill-palette-color="tertiary" fill="#ba3b0a" stroke="transparent"></path></g><g transform="matrix(1,0,0,1,46.946902085972525,46.946902085972525)"><svg viewBox="0 0 134.76800237732115 134.76800237732115" height="134.76800237732115" width="134.76800237732115"><g><svg xmlns="http://www.w3.org/2000/svg" xmlns:xlink="http://www.w3.org/1999/xlink" version="1.1" x="0" y="0" viewBox="-252.5 349.5 95 95" enable-background="new -255 347 100 100" xml:space="preserve" height="134.76800237732115" width="134.76800237732115" class="icon-z$-0" data-fill-palette-color="accent" id="z$-0"><g display="none" fill="#e8772e" data-fill-palette-color="accent"><path display="inline" fill-rule="evenodd" clip-rule="evenodd" d="M-205 349.5c-26.2 0-47.5 21.3-47.5 47.5s21.3 47.5 47.5 47.5 47.5-21.3 47.5-47.5S-178.8 349.5-205 349.5zM-205 436.9c-22 0-39.9-17.9-39.9-39.9s17.9-39.9 39.9-39.9 39.9 17.9 39.9 39.9S-183 436.9-205 436.9z" fill="#e8772e" data-fill-palette-color="accent"></path><g display="inline" fill="#e8772e" data-fill-palette-color="accent"><path fill-rule="evenodd" clip-rule="evenodd" d="M-208.1 422.6c0 0-16.8-5.7-16.8-19.1s8.3-14.3 13.7-22.1c5.4-7.9 5.3-9.9 5.3-9.9s4.2 3.1 6.9 9.9 0 16 0 16 3.2-1.6 5.3-4.6c2.1-3 3.1-6.9 3.1-6.9s5.3 5.1 5.3 15.3c0 14.6-11.4 21.4-11.4 21.4s-7-6.2-9.2-10.7c-2.2-4.4-3.8-9.9-3.8-9.9s-3.1 4.3-3.1 8.4C-212.6 418.5-208.1 422.6-208.1 422.6z" fill="#e8772e" data-fill-palette-color="accent"></path></g></g><g fill="#e8772e" data-fill-palette-color="accent"><path fill-rule="evenodd" clip-rule="evenodd" d="M-205 349.5c-26.2 0-47.5 21.3-47.5 47.5s21.3 47.5 47.5 47.5 47.5-21.3 47.5-47.5S-178.8 349.5-205 349.5zM-205 436.9c-22 0-39.9-17.9-39.9-39.9s17.9-39.9 39.9-39.9 39.9 17.9 39.9 39.9S-183 436.9-205 436.9z" fill="#e8772e" data-fill-palette-color="accent"></path><path fill-rule="evenodd" clip-rule="evenodd" d="M-205 370.5c-8.5 10.8-22 16.2-22 31 0 12.2 9.9 22 22 22s22-9.9 22-22C-183 386.6-196.5 381.2-205 370.5zM-206.8 417.2c-8.2 0-14.9-6.6-14.9-14.9 0-3.2 1-6.2 2.7-8.6 0 0.3 0 0.6 0 0.9 0 11 8.6 19.9 19.4 20.6C-201.7 416.6-204.2 417.2-206.8 417.2z" fill="#e8772e" data-fill-palette-color="accent"></path></g><g display="none" fill="#e8772e" data-fill-palette-color="accent"><path display="inline" fill-rule="evenodd" clip-rule="evenodd" d="M-205 349.5c-26.2 0-47.5 21.3-47.5 47.5s21.3 47.5 47.5 47.5 47.5-21.3 47.5-47.5S-178.8 349.5-205 349.5zM-205 436.9c-22 0-39.9-17.9-39.9-39.9s17.9-39.9 39.9-39.9 39.9 17.9 39.9 39.9S-183 436.9-205 436.9z" fill="#e8772e" data-fill-palette-color="accent"></path><g display="inline" fill="#e8772e" data-fill-palette-color="accent"><path fill-rule="evenodd" clip-rule="evenodd" d="M-198.6 371.5l-28.9 30.6h22.9l-6.8 20.4 28.9-30.6h-22.9L-198.6 371.5z" fill="#e8772e" data-fill-palette-color="accent"></path></g></g></svg></g></svg></g></svg></g></svg></g><g></g></svg></g><defs></defs></svg><rect width="270.3244782699007" height="247.2" fill="none" stroke="none" visibility="hidden"></rect></g></svg></g></svg>